<svg width="24" height="24" viewBox="0 0 24 24" fill="none" xmlns="http://www.w3.org/2000/svg">
<g clip-path="url(#clip0_677_1298)">
<path fill-rule="evenodd" clip-rule="evenodd" d="M12.2626 0.00284098C10.5166 -0.0351556 8.78341 0.308384 7.18396 1.00948C5.58451 1.71057 4.15736 2.75231 3.00214 4.06199C1.84692 5.37166 0.991474 6.91769 0.49553 8.59215C-0.000414222 10.2666 -0.124907 12.0291 0.130742 13.7567C0.386392 15.4842 1.01602 17.1352 1.97568 18.5942C2.93533 20.0533 4.20188 21.2853 5.68691 22.2042C7.17193 23.1232 8.83963 23.7069 10.5736 23.9147C12.3075 24.1225 14.0659 23.9494 15.7261 23.4073C16.0097 23.3146 16.2449 23.1131 16.3799 22.847C16.515 22.5808 16.5387 22.272 16.4461 21.9883C16.3534 21.7047 16.1518 21.4695 15.8857 21.3345C15.6196 21.1994 15.3107 21.1756 15.0271 21.2683C13.223 21.8574 11.2863 21.9072 9.45435 21.4116C7.62243 20.916 5.97497 19.8965 4.71401 18.4782C3.45306 17.0599 2.63343 15.3044 2.35565 13.4271C2.07786 11.5497 2.354 9.63214 3.15019 7.90945C3.94638 6.18676 5.22801 4.73388 6.8379 3.72898C8.4478 2.72409 10.316 2.21087 12.2133 2.25226C14.1106 2.29365 15.9546 2.88786 17.5192 3.96202C19.0837 5.03617 20.3008 6.54357 21.0211 8.29934C21.1342 8.57543 21.3525 8.79525 21.6277 8.91045C21.764 8.96749 21.9102 8.99712 22.0579 8.99766C22.2057 8.9982 22.3521 8.96963 22.4888 8.91359C22.6255 8.85755 22.7498 8.77513 22.8547 8.67104C22.9596 8.56695 23.0429 8.44322 23.0999 8.30693C23.157 8.17064 23.1866 8.02444 23.1871 7.8767C23.1877 7.72895 23.1591 7.58255 23.1031 7.44584C22.2166 5.28478 20.7187 3.42941 18.7931 2.10729C16.8674 0.785174 14.5978 0.0537892 12.2626 0.00284098ZM13.1251 5.62484C13.1251 5.32647 13.0065 5.04032 12.7956 4.82935C12.5846 4.61837 12.2984 4.49984 12.0001 4.49984C11.7017 4.49984 11.4155 4.61837 11.2046 4.82935C10.9936 5.04032 10.8751 5.32647 10.8751 5.62484V11.5348L7.82406 14.5843C7.71353 14.6873 7.62487 14.8115 7.56339 14.9495C7.5019 15.0875 7.46883 15.2365 7.46617 15.3876C7.4635 15.5386 7.49129 15.6887 7.54787 15.8287C7.60445 15.9688 7.68867 16.0961 7.7955 16.2029C7.90233 16.3097 8.02958 16.3939 8.16966 16.4505C8.30974 16.5071 8.45979 16.5349 8.61084 16.5322C8.76189 16.5296 8.91086 16.4965 9.04886 16.435C9.18686 16.3735 9.31106 16.2849 9.41406 16.1743L12.7951 12.7948L13.1251 12.4648V5.62484ZM22.5001 22.4998C22.5001 22.8977 22.342 23.2792 22.0607 23.5605C21.7794 23.8418 21.3979 23.9998 21.0001 23.9998C20.6022 23.9998 20.2207 23.8418 19.9394 23.5605C19.6581 23.2792 19.5001 22.8977 19.5001 22.4998C19.5001 22.102 19.6581 21.7205 19.9394 21.4392C20.2207 21.1579 20.6022 20.9998 21.0001 20.9998C21.3979 20.9998 21.7794 21.1579 22.0607 21.4392C22.342 21.7205 22.5001 22.102 22.5001 22.4998ZM22.1251 13.1248C22.1251 12.8265 22.0065 12.5403 21.7956 12.3293C21.5846 12.1184 21.2984 11.9998 21.0001 11.9998C20.7017 11.9998 20.4155 12.1184 20.2046 12.3293C19.9936 12.5403 19.8751 12.8265 19.8751 13.1248V18.3748C19.8751 18.6732 19.9936 18.9594 20.2046 19.1703C20.4155 19.3813 20.7017 19.4998 21.0001 19.4998C21.2984 19.4998 21.5846 19.3813 21.7956 19.1703C22.0065 18.9594 22.1251 18.6732 22.1251 18.3748V13.1248Z" fill="#E93C3C"/>
</g>
<defs>
<clipPath id="clip0_677_1298">
<rect width="24" height="24" fill="white"/>
</clipPath>
</defs>
</svg>
