<svg width="41" height="40" viewBox="0 0 41 40" fill="none" xmlns="http://www.w3.org/2000/svg">
<rect x="1.16675" y="0.5" width="39" height="39" rx="5.5" stroke="#00AF54"/>
<path d="M27.3333 22.1425C27.3333 25.6275 24.28 28.3333 20.6667 28.3333C17.0533 28.3333 14 25.6275 14 22.1425C14 20 15.0875 17.8767 16.2633 16.1858C17.455 14.4733 18.8267 13.0808 19.565 12.3792M27.3333 22.1425L19.565 12.3792M27.3333 22.1425C27.3333 20 26.2458 17.8767 25.07 16.1858C23.8783 14.4733 22.5067 13.0808 21.7683 12.3792C21.4717 12.0955 21.0771 11.9373 20.6667 11.9373C20.2563 11.9373 19.8616 12.0955 19.565 12.3792" stroke="#00AF54" stroke-width="1.5"/>
<path d="M20.6666 25C19.7825 25 18.9347 24.6488 18.3096 24.0236C17.6844 23.3985 17.3333 22.5507 17.3333 21.6666" stroke="#00AF54" stroke-width="1.5" stroke-linecap="round"/>
</svg>
