<svg width="20-" height="20" viewBox="0 0 24 24" fill="none" xmlns="http://www.w3.org/2000/svg">
<path d="M18.9694 7.77188C18.9638 3.78376 15.7275 0.556882 11.7394 0.562507C7.75316 0.568132 4.52441 3.80438 4.53004 7.79063C4.53191 9.52876 5.38691 11.0588 6.31879 12.4894C7.29754 13.9913 7.96316 15.4369 8.70191 17.0475C9.13504 17.9944 10.3163 18.3638 11.3475 18.435C12.3563 18.5025 13.6369 18.3881 14.4807 17.6981C15.8025 16.6181 15.8325 14.5519 16.7007 13.1738C17.7638 11.49 18.9713 9.85876 18.9694 7.77188Z" fill="#FCC21B"/>
<path d="M13.71 22.4926C13.8206 22.412 13.9125 22.3182 13.9762 22.1832C14.0531 22.0145 14.0268 21.8551 14.0081 21.677C13.9931 21.5251 14.0081 21.4595 14.1112 21.3545C14.2275 21.2364 14.3456 21.1295 14.3662 20.9551C14.3812 20.8257 14.3531 20.702 14.3287 20.5782C14.3156 20.5332 14.3081 20.4864 14.3081 20.4395C14.3343 20.3401 14.46 20.2707 14.5293 20.2032C14.7093 20.0289 14.8762 19.787 14.9287 19.5414C14.9625 19.3876 14.955 19.1664 14.8575 19.037C14.7131 18.8457 14.52 18.9226 14.3362 19.0051C14.2762 19.0314 14.2237 19.0651 14.1637 19.0932C13.0237 19.6464 11.6812 19.6464 10.4718 19.3407C10.1643 19.2639 9.85684 19.1701 9.56997 19.0351C9.34309 18.9301 9.02247 18.812 8.86684 19.0932C8.73559 19.3295 8.80309 19.6445 8.89872 19.8826C8.95497 20.0214 9.07684 20.1414 9.17809 20.2482C9.27559 20.3514 9.31872 20.4039 9.29059 20.5351C9.26434 20.6551 9.28309 20.7564 9.29434 20.8782C9.31122 21.0432 9.33372 21.2007 9.44059 21.3339C9.54372 21.4632 9.69747 21.5626 9.78934 21.6995C9.86997 21.8176 9.86809 21.977 9.91497 22.1101C9.99372 22.3276 10.1831 22.5582 10.3743 22.6895C10.5918 22.8376 10.8843 22.8282 11.0737 23.0232C11.3231 23.282 11.6793 23.4695 12.0468 23.447C12.4968 23.4207 12.7387 23.072 13.0818 22.8357C13.215 22.7439 13.3818 22.7045 13.5225 22.6182C13.5862 22.5751 13.65 22.5357 13.71 22.4926Z" fill="#78A3AD"/>
</svg>
