<svg width="28" height="19" viewBox="0 0 28 19" fill="none" xmlns="http://www.w3.org/2000/svg">
<path d="M1.99984 15.0002C1.62206 15.0002 1.30562 14.8722 1.0505 14.6162C0.795393 14.3602 0.667393 14.0437 0.666504 13.6668C0.666504 13.2891 0.794504 12.9726 1.0505 12.7175C1.3065 12.4624 1.62295 12.3344 1.99984 12.3335H3.33317C3.71095 12.3335 4.02784 12.4615 4.28384 12.7175C4.53984 12.9735 4.66739 13.2899 4.6665 13.6668C4.6665 14.0446 4.5385 14.3615 4.2825 14.6175C4.0265 14.8735 3.71006 15.0011 3.33317 15.0002H1.99984ZM7.39984 7.06683C7.15539 7.31127 6.84428 7.4335 6.4665 7.4335C6.08873 7.4335 5.77762 7.31127 5.53317 7.06683L4.5665 6.10016C4.32206 5.85572 4.19984 5.54461 4.19984 5.16683C4.19984 4.78905 4.32206 4.47794 4.5665 4.2335C4.81095 3.98905 5.12206 3.86683 5.49984 3.86683C5.87762 3.86683 6.18873 3.98905 6.43317 4.2335L7.39984 5.20016C7.64428 5.44461 7.7665 5.75572 7.7665 6.1335C7.7665 6.51127 7.64428 6.82239 7.39984 7.06683ZM9.33317 19.0002C8.77762 19.0002 8.30562 18.8059 7.91717 18.4175C7.52873 18.0291 7.33406 17.5566 7.33317 17.0002C7.33317 16.4446 7.52784 15.9726 7.91717 15.5842C8.30651 15.1957 8.77851 15.0011 9.33317 15.0002H18.6665C19.2221 15.0002 19.6945 15.1948 20.0838 15.5842C20.4732 15.9735 20.6674 16.4455 20.6665 17.0002C20.6665 17.5557 20.4723 18.0282 20.0838 18.4175C19.6954 18.8068 19.2229 19.0011 18.6665 19.0002H9.33317ZM13.9998 4.3335C13.6221 4.3335 13.3056 4.2055 13.0505 3.9495C12.7954 3.6935 12.6674 3.37705 12.6665 3.00016V1.66683C12.6665 1.28905 12.7945 0.972607 13.0505 0.717496C13.3065 0.462385 13.6229 0.334385 13.9998 0.333496C14.3776 0.333496 14.6945 0.461496 14.9505 0.717496C15.2065 0.973496 15.3341 1.28994 15.3332 1.66683V3.00016C15.3332 3.37794 15.2052 3.69483 14.9492 3.95083C14.6932 4.20683 14.3767 4.33438 13.9998 4.3335ZM20.5998 7.06683C20.3554 6.80016 20.2274 6.48905 20.2158 6.1335C20.2043 5.77794 20.3323 5.46683 20.5998 5.20016L21.5665 4.2335C21.8332 3.96683 22.1443 3.83927 22.4998 3.85083C22.8554 3.86239 23.1665 4.00105 23.4332 4.26683C23.6776 4.5335 23.8056 4.84461 23.8172 5.20016C23.8287 5.55572 23.7007 5.86683 23.4332 6.1335L22.4665 7.10016C22.1998 7.36683 21.8887 7.49483 21.5332 7.48416C21.1776 7.4735 20.8665 7.33439 20.5998 7.06683ZM24.6665 15.0002C24.2887 15.0002 23.9723 14.8722 23.7172 14.6162C23.4621 14.3602 23.3341 14.0437 23.3332 13.6668C23.3332 13.2891 23.4612 12.9726 23.7172 12.7175C23.9732 12.4624 24.2896 12.3344 24.6665 12.3335H25.9998C26.3776 12.3335 26.6945 12.4615 26.9505 12.7175C27.2065 12.9735 27.3341 13.2899 27.3332 13.6668C27.3332 14.0446 27.2052 14.3615 26.9492 14.6175C26.6932 14.8735 26.3767 15.0011 25.9998 15.0002H24.6665Z" fill="#B8E716"/>
</svg>
