<svg width="30" height="34" viewBox="0 0 30 34" fill="none" xmlns="http://www.w3.org/2000/svg">
<path d="M16.0167 0.811645C15.7347 0.566588 15.3737 0.431641 15.0001 0.431641C14.6264 0.431641 14.2654 0.566588 13.9834 0.811645C12.7165 1.90863 11.6933 3.2586 10.9794 4.77474C10.2655 6.29088 9.87687 7.93963 9.83838 9.61498C9.83749 9.77065 9.88048 9.92342 9.96243 10.0558C10.0444 10.1881 10.162 10.2947 10.3017 10.3633C11.3154 10.8908 12.2659 11.5315 13.135 12.2733C13.5651 12.6383 13.9551 13.02 14.3084 13.4083C14.6751 13.8116 15.3251 13.8116 15.6917 13.4083C16.0467 13.02 16.4367 12.6383 16.8651 12.275C17.734 11.5329 18.6845 10.8921 19.6984 10.365C19.8384 10.2966 19.9564 10.1901 20.0386 10.0578C20.1209 9.92539 20.1641 9.7725 20.1634 9.61665C20.1251 7.94101 19.7366 6.29194 19.0227 4.7755C18.3088 3.25905 17.2854 1.90882 16.0184 0.811645M15.0001 27.0717C16.338 24.7161 18.3488 22.8137 20.7747 21.6082C23.2006 20.4027 25.9313 19.9489 28.6167 20.305C29.4301 20.4116 30.0384 21.1383 29.9751 21.9783C29.7302 25.1588 28.2938 28.1296 25.9531 30.2966C23.6124 32.4637 20.5399 33.6672 17.3501 33.6667H12.6501C9.46049 33.6668 6.3884 32.4631 4.04803 30.296C1.70767 28.129 0.271506 25.1585 0.0267048 21.9783C-0.00358592 21.5787 0.120293 21.1826 0.372903 20.8714C0.625513 20.5602 0.987682 20.3575 1.38504 20.305C4.07052 19.9486 6.80124 20.4023 9.22723 21.6079C11.6532 22.8135 13.6639 24.716 15.0017 27.0717M27.7451 18.55C24.6667 18.38 21.6551 19.1833 19.2017 20.4917C17.7317 21.275 16.3851 22.2833 15.3317 23.4433C15.2899 23.4892 15.2389 23.5259 15.1821 23.5509C15.1253 23.576 15.0638 23.589 15.0017 23.589C14.9396 23.589 14.8782 23.576 14.8214 23.5509C14.7645 23.5259 14.7136 23.4892 14.6717 23.4433C13.6217 22.2817 12.2734 21.275 10.8034 20.4917C8.35505 19.1867 5.35338 18.385 2.28337 18.55C1.06671 16.6333 0.233372 14.4333 0.0333714 12.2166C0.0146233 12.0071 0.037481 11.7959 0.10063 11.5952C0.16378 11.3945 0.265976 11.2082 0.401343 11.0471C0.536711 10.8861 0.70258 10.7533 0.889417 10.6566C1.07625 10.5598 1.28037 10.5009 1.49004 10.4833C5.58171 10.1416 8.99671 10.95 12.06 13.545C13.4434 14.7166 14.3701 16.1233 15.0034 17.3233C15.6351 16.1233 16.5634 14.7166 17.9451 13.545C21.0117 10.9483 24.4501 10.1416 28.5384 10.4833C28.7482 10.5007 28.9525 10.5594 29.1395 10.6561C29.3266 10.7528 29.4926 10.8855 29.6282 11.0466C29.7637 11.2077 29.8661 11.394 29.9293 11.5948C29.9926 11.7956 30.0155 12.007 29.9967 12.2166C29.7951 14.4333 28.9617 16.635 27.7467 18.55" fill="#00AF54"/>
</svg>
