<svg width="24" height="24" viewBox="0 0 24 24" fill="none" xmlns="http://www.w3.org/2000/svg">
<path d="M19 3.5H5C4.45 3.5 4 3.95 4 4.5V7.5C4 8.05 4.45 8.5 5 8.5H19C19.55 8.5 20 8.05 20 7.5V4.5C20 3.95 19.55 3.5 19 3.5ZM19 9.5H5C4.45 9.5 4 9.95 4 10.5V13.5C4 14.05 4.45 14.5 5 14.5H19C19.55 14.5 20 14.05 20 13.5V10.5C20 9.95 19.55 9.5 19 9.5ZM19 15.5H5C4.45 15.5 4 15.95 4 16.5V19.5C4 20.05 4.45 20.5 5 20.5H19C19.55 20.5 20 20.05 20 19.5V16.5C20 15.95 19.55 15.5 19 15.5Z" fill="#D1C4E9"/>
<path d="M19 24C21.7614 24 24 21.7614 24 19C24 16.2386 21.7614 14 19 14C16.2386 14 14 16.2386 14 19C14 21.7614 16.2386 24 19 24Z" fill="#43A047"/>
<path d="M21.25 16.6499L18.4 19.4999L17.05 18.1499L16 19.2499L18.4 21.6499L22.3 17.7499L21.25 16.6499Z" fill="#DCEDC8"/>
</svg>
