<svg width="48" height="48" viewBox="0 0 48 48" fill="none" xmlns="http://www.w3.org/2000/svg">
<rect x="0.5" y="0.5" width="47" height="47" rx="5.5" stroke="#00AF54"/>
<path d="M21.75 24.945V16.5C21.75 15.7044 21.4339 14.9413 20.8713 14.3787C20.3087 13.8161 19.5456 13.5 18.75 13.5C17.9544 13.5 17.1913 13.8161 16.6287 14.3787C16.0661 14.9413 15.75 15.7044 15.75 16.5V24.945C14.8328 25.5837 14.1433 26.4984 13.7819 27.5561C13.4206 28.6138 13.4062 29.7592 13.7409 30.8256C14.0756 31.892 14.7419 32.8237 15.6429 33.4852C16.5438 34.1467 17.6323 34.5034 18.75 34.5034C19.8677 34.5034 20.9562 34.1467 21.8571 33.4852C22.7581 32.8237 23.4244 31.892 23.7591 30.8256C24.0938 29.7592 24.0794 28.6138 23.7181 27.5561C23.3567 26.4984 22.6672 25.5837 21.75 24.945ZM18.75 15C19.1478 15 19.5294 15.158 19.8107 15.4393C20.092 15.7206 20.25 16.1022 20.25 16.5V21.75H17.25V16.5C17.25 16.1022 17.408 15.7206 17.6893 15.4393C17.9706 15.158 18.3522 15 18.75 15ZM18.75 33C17.9245 33 17.1221 32.7276 16.4672 32.225C15.8124 31.7225 15.3416 31.0179 15.1279 30.2206C14.9143 29.4232 14.9697 28.5777 15.2856 27.815C15.6015 27.0524 16.1601 26.4153 16.875 26.0025L17.25 25.7925V23.25H20.25V25.7925L20.625 26.0025C21.3399 26.4153 21.8985 27.0524 22.2144 27.815C22.5303 28.5777 22.5857 29.4232 22.3721 30.2206C22.1584 31.0179 21.6876 31.7225 21.0328 32.225C20.3779 32.7276 19.5755 33 18.75 33ZM27 15H34.5V16.5H27V15ZM27 19.5H32.25V21H27V19.5ZM27 24H34.5V25.5H27V24ZM27 28.5H32.25V30H27V28.5Z" fill="#00AF54"/>
</svg>
