<svg width="26" height="24" viewBox="0 0 26 24" fill="none" xmlns="http://www.w3.org/2000/svg">
<path d="M12.9998 22.485C18.1545 22.485 22.3332 18.3064 22.3332 13.1517C22.3332 7.99704 18.1545 3.81836 12.9998 3.81836C7.84518 3.81836 3.6665 7.99704 3.6665 13.1517C3.6665 18.3064 7.84518 22.485 12.9998 22.485Z" stroke="#00AF54" stroke-width="1.5"/>
<path d="M4.95315 1.33301C4.04862 1.57526 3.22382 2.0514 2.56168 2.71354C1.89954 3.37568 1.42341 4.20048 1.18115 5.10501M21.0465 1.33301C21.951 1.57526 22.7758 2.0514 23.438 2.71354C24.1001 3.37568 24.5762 4.20048 24.8185 5.10501M12.9998 7.81834V12.8183C12.9998 13.0023 13.1492 13.1517 13.3332 13.1517H16.9998" stroke="#00AF54" stroke-width="1.5" stroke-linecap="round"/>
</svg>
