<svg width="32" height="32" viewBox="0 0 32 32" fill="none" xmlns="http://www.w3.org/2000/svg">
<path d="M28.806 3H9.70496C9.54843 2.99987 9.3934 3.03057 9.24873 3.09035C9.10406 3.15014 8.97258 3.23783 8.8618 3.34842C8.75102 3.45902 8.66311 3.59035 8.60308 3.73492C8.54306 3.87949 8.51209 4.03447 8.51196 4.191V9.5L19.581 12.75L30 9.5V4.191C29.9998 4.03438 29.9688 3.87932 29.9087 3.73469C29.8487 3.59005 29.7607 3.45868 29.6498 3.34807C29.5389 3.23746 29.4073 3.14979 29.2625 3.09007C29.1177 3.03034 28.9626 2.99974 28.806 3Z" fill="#41A5EE"/>
<path d="M30 9.5H8.51196V16L19.581 17.95L30 16V9.5Z" fill="#2B7CD3"/>
<path d="M8.51196 16V22.5L18.93 23.8L30 22.5V16H8.51196Z" fill="#185ABD"/>
<path d="M9.70496 29H28.805C28.9617 29.0004 29.1169 28.9699 29.2618 28.9102C29.4067 28.8506 29.5384 28.7629 29.6494 28.6523C29.7604 28.5417 29.8485 28.4102 29.9087 28.2655C29.9688 28.1208 29.9998 27.9657 30 27.809V22.5H8.51196V27.809C8.51209 27.9655 8.54306 28.1205 8.60308 28.2651C8.66311 28.4097 8.75102 28.541 8.8618 28.6516C8.97258 28.7622 9.10406 28.8499 9.24873 28.9096C9.3934 28.9694 9.54843 29.0001 9.70496 29Z" fill="#103F91"/>
<path opacity="0.1" d="M16.434 8.19995H8.51196V24.45H16.434C16.7496 24.4484 17.052 24.3225 17.2755 24.0996C17.4989 23.8766 17.6256 23.5746 17.628 23.259V9.39095C17.6256 9.07529 17.4989 8.77327 17.2755 8.55034C17.052 8.32741 16.7496 8.20152 16.434 8.19995Z" fill="black"/>
<path opacity="0.2" d="M15.783 8.84998H8.51196V25.1H15.783C16.0986 25.0984 16.401 24.9725 16.6245 24.7496C16.8479 24.5267 16.9746 24.2246 16.977 23.909V10.041C16.9746 9.72531 16.8479 9.4233 16.6245 9.20037C16.401 8.97743 16.0986 8.85155 15.783 8.84998Z" fill="black"/>
<path opacity="0.2" d="M15.783 8.84998H8.51196V23.8H15.783C16.0986 23.7984 16.401 23.6725 16.6245 23.4496C16.8479 23.2267 16.9746 22.9246 16.977 22.609V10.041C16.9746 9.72531 16.8479 9.4233 16.6245 9.20037C16.401 8.97743 16.0986 8.85155 15.783 8.84998Z" fill="black"/>
<path opacity="0.2" d="M15.132 8.84998H8.51196V23.8H15.132C15.4476 23.7984 15.75 23.6725 15.9735 23.4496C16.1969 23.2267 16.3236 22.9246 16.326 22.609V10.041C16.3236 9.72531 16.1969 9.4233 15.9735 9.20037C15.75 8.97743 15.4476 8.85155 15.132 8.84998Z" fill="black"/>
<path d="M3.194 8.84998H15.132C15.4482 8.84971 15.7516 8.97501 15.9755 9.19834C16.1994 9.42166 16.3255 9.72475 16.326 10.041V21.959C16.3255 22.2752 16.1994 22.5783 15.9755 22.8016C15.7516 23.0249 15.4482 23.1502 15.132 23.15H3.194C3.03738 23.1502 2.88224 23.1196 2.73746 23.0599C2.59267 23.0002 2.46108 22.9125 2.35019 22.8019C2.2393 22.6913 2.1513 22.5599 2.09121 22.4153C2.03113 22.2707 2.00013 22.1156 2 21.959V10.041C2.00013 9.88436 2.03113 9.7293 2.09121 9.58466C2.1513 9.44003 2.2393 9.30865 2.35019 9.19804C2.46108 9.08744 2.59267 8.99977 2.73746 8.94004C2.88224 8.88032 3.03738 8.84971 3.194 8.84998Z" fill="url(#paint0_linear_1044_266)"/>
<path d="M6.89994 17.988C6.92294 18.172 6.93894 18.332 6.94594 18.469H6.97394C6.98394 18.339 7.00594 18.182 7.03894 17.999C7.07194 17.816 7.10094 17.661 7.12794 17.534L8.38294 12.127H10.0069L11.3069 17.453C11.3827 17.7824 11.4368 18.1165 11.4689 18.453H11.4909C11.5148 18.1254 11.5599 17.7997 11.6259 17.478L12.6649 12.12H14.1419L12.3179 19.868H10.5909L9.35394 14.742C9.31794 14.594 9.27728 14.4013 9.23194 14.164C9.18661 13.9267 9.15861 13.7533 9.14794 13.644H9.12694C9.11294 13.77 9.08494 13.957 9.04294 14.205C9.00094 14.454 8.96794 14.637 8.94294 14.757L7.77994 19.871H6.02394L4.18994 12.127H5.68994L6.82094 17.545C6.8547 17.6912 6.88106 17.8391 6.89994 17.988Z" fill="white"/>
<defs>
<linearGradient id="paint0_linear_1044_266" x1="4.494" y1="7.91398" x2="13.832" y2="24.086" gradientUnits="userSpaceOnUse">
<stop stop-color="#2368C4"/>
<stop offset="0.5" stop-color="#1A5DBE"/>
<stop offset="1" stop-color="#1146AC"/>
</linearGradient>
</defs>
</svg>
