<svg width="255" height="242" viewBox="0 0 255 242" fill="none" xmlns="http://www.w3.org/2000/svg">
<g clip-path="url(#clip0_586_4008)">
<path d="M154.593 61.1278C154.203 60.7821 153.924 60.3284 153.791 59.8241C153.658 59.3197 153.678 58.7873 153.848 58.2943C154.018 57.8013 154.331 57.3698 154.746 57.0543C155.161 56.7388 155.661 56.5535 156.181 56.5218C156.702 56.4902 157.22 56.6136 157.67 56.8765C158.121 57.1394 158.483 57.5299 158.711 57.9987C158.94 58.4676 159.024 58.9936 158.954 59.5103C158.883 60.027 158.661 60.5112 158.315 60.9016C157.852 61.4252 157.199 61.7431 156.501 61.7856C155.803 61.828 155.117 61.5914 154.593 61.1278ZM124.579 75.4047C123.881 75.4455 123.195 75.2082 122.672 74.7448C122.149 74.2814 121.83 73.6296 121.786 72.932L121.022 60.3615C120.992 59.6708 121.234 58.9958 121.696 58.482C122.159 57.9681 122.805 57.6565 123.495 57.6143C124.185 57.572 124.864 57.8024 125.386 58.256C125.908 58.7095 126.23 59.3499 126.285 60.0391L127.051 72.612C127.088 73.3074 126.849 73.9893 126.386 74.5095C125.923 75.0296 125.273 75.3459 124.578 75.3898L124.579 75.4047ZM149.172 46.1806C148.782 45.8348 148.502 45.3811 148.37 44.8768C148.237 44.3724 148.257 43.8401 148.427 43.3471C148.597 42.854 148.909 42.4225 149.325 42.107C149.74 41.7915 150.239 41.6062 150.76 41.5746C151.28 41.5429 151.799 41.6664 152.249 41.9292C152.699 42.1921 153.062 42.5827 153.29 43.0515C153.519 43.5203 153.603 44.0463 153.532 44.563C153.462 45.0797 153.24 45.5639 152.894 45.9543C152.663 46.2127 152.384 46.423 152.072 46.5735C151.76 46.7239 151.422 46.8114 151.076 46.831C150.731 46.8507 150.384 46.802 150.057 46.6878C149.731 46.5737 149.429 46.3962 149.171 46.1657L149.172 46.1806ZM147.504 69.1349C147.158 69.5253 146.704 69.8045 146.2 69.937C145.696 70.0696 145.163 70.0497 144.67 69.8797C144.177 69.7097 143.746 69.3974 143.43 68.9822C143.115 68.5669 142.929 68.0675 142.898 67.5469C142.866 67.0264 142.99 66.5082 143.252 66.0578C143.515 65.6074 143.906 65.2451 144.375 65.0167C144.844 64.7882 145.37 64.7039 145.886 64.7745C146.403 64.845 146.887 65.0671 147.278 65.4128C147.537 65.6421 147.749 65.9204 147.901 66.2317C148.053 66.5429 148.142 66.8812 148.163 67.2269C148.184 67.5727 148.137 67.9192 148.023 68.2466C147.91 68.574 147.734 68.8758 147.504 69.1349ZM135.883 75.3178C135.545 75.3959 135.196 75.4068 134.854 75.3498C134.513 75.2928 134.186 75.1691 133.892 74.9858C133.598 74.8024 133.344 74.563 133.142 74.2812C132.941 73.9994 132.797 73.6807 132.719 73.3433C131.743 69.1417 131.891 64.7572 133.147 60.6307C134.621 55.9107 137.47 51.7381 141.33 48.6471C141.876 48.2107 142.574 48.0091 143.269 48.0869C143.964 48.1647 144.6 48.5154 145.036 49.0619C145.472 49.6084 145.674 50.3059 145.596 51.0009C145.518 51.696 145.168 52.3316 144.621 52.7681C141.587 55.1886 139.345 58.4598 138.181 62.1627C137.196 65.4014 137.08 68.8426 137.846 72.1401C137.927 72.4777 137.94 72.8279 137.884 73.1705C137.829 73.5131 137.707 73.8414 137.524 74.1367C137.342 74.4319 137.103 74.6882 136.821 74.8909C136.54 75.0936 136.221 75.2387 135.883 75.3178ZM104.705 50.8732C108.91 53.4754 112.243 57.2718 114.279 61.7775C116.025 65.7255 116.699 70.0638 116.234 74.3553C116.206 74.7063 116.108 75.048 115.945 75.3604C115.783 75.6728 115.559 75.9495 115.288 76.1741C115.017 76.3988 114.704 76.5669 114.367 76.6685C114.03 76.7701 113.675 76.8032 113.325 76.7657C112.975 76.7283 112.636 76.6211 112.328 76.4505C112.02 76.2799 111.749 76.0494 111.532 75.7724C111.315 75.4955 111.155 75.1779 111.062 74.8382C110.969 74.4985 110.946 74.1437 110.992 73.7947C111.352 70.4287 110.821 67.0272 109.451 63.9313C107.847 60.3975 105.225 57.4224 101.921 55.3858C101.626 55.2043 101.37 54.9664 101.167 54.6857C100.964 54.4051 100.818 54.0873 100.738 53.7503C100.658 53.4134 100.645 53.064 100.7 52.722C100.755 52.3801 100.876 52.0523 101.058 51.7573C101.24 51.4624 101.478 51.2061 101.758 51.0031C102.039 50.8002 102.357 50.6544 102.694 50.5743C103.03 50.4941 103.38 50.4811 103.722 50.536C104.064 50.5909 104.392 50.7127 104.687 50.8942L104.705 50.8732ZM113.016 11.3642L128.298 10.4328C129.926 10.3345 131.526 10.8865 132.747 11.9677C133.969 13.0489 134.71 14.5706 134.81 16.1986L135.739 31.4836C135.829 32.96 135.384 34.4195 134.486 35.5947C133.588 36.7699 132.296 37.5821 130.848 37.8827L131.283 45.0064C131.369 46.4485 130.88 47.8657 129.922 48.9473C128.964 50.0289 127.617 50.6866 126.175 50.7761L120.001 51.1414C118.559 51.2272 117.141 50.7376 116.06 49.7799C114.978 48.8223 114.321 47.4748 114.231 46.0329L113.811 38.9182C112.338 38.7931 110.959 38.1426 109.925 37.0853C108.892 36.028 108.273 34.6343 108.181 33.1586L107.252 17.8735C107.156 16.246 107.708 14.6466 108.789 13.4259C109.87 12.2053 111.391 11.4629 113.018 11.3616L113.016 11.3642ZM112.515 17.5561L113.444 32.8412C113.459 33.0739 113.565 33.2914 113.74 33.4459C113.915 33.6005 114.143 33.6797 114.376 33.6662C114.952 33.6309 115.528 33.7093 116.074 33.8971C116.619 34.0849 117.122 34.3783 117.553 34.7605C117.985 35.1428 118.337 35.6064 118.59 36.1248C118.842 36.6432 118.99 37.2063 119.024 37.7819L119.507 45.7222C119.51 45.7681 119.531 45.8109 119.566 45.8414C119.6 45.8719 119.645 45.8877 119.691 45.8854L125.853 45.5134C125.899 45.5098 125.942 45.4883 125.973 45.4534C126.004 45.4186 126.02 45.373 126.018 45.3265L125.535 37.3862C125.5 36.8106 125.579 36.2338 125.766 35.6886C125.954 35.1434 126.248 34.6406 126.63 34.2089C127.012 33.7772 127.476 33.425 127.994 33.1726C128.512 32.9202 129.076 32.7724 129.651 32.7378C129.884 32.7221 130.1 32.6155 130.255 32.4411C130.409 32.2668 130.489 32.0386 130.476 31.806L129.534 16.5093C129.519 16.2765 129.413 16.0591 129.238 15.9045C129.064 15.7499 128.835 15.6707 128.602 15.6843L113.327 16.6127C113.095 16.6316 112.879 16.7413 112.728 16.9178C112.576 17.0944 112.499 17.3237 112.515 17.5561ZM96.6952 64.5921C97.0857 64.9378 97.3649 65.3915 97.4974 65.8959C97.63 66.4002 97.6101 66.9326 97.4401 67.4256C97.2701 67.9186 96.9578 68.3502 96.5425 68.6657C96.1273 68.9812 95.6279 69.1665 95.1073 69.1981C94.5868 69.2297 94.0686 69.1063 93.6182 68.8434C93.1678 68.5805 92.8055 68.19 92.577 67.7212C92.3486 67.2524 92.2643 66.7264 92.3349 66.2097C92.4054 65.693 92.6275 65.2088 92.9732 64.8183C93.2016 64.5569 93.4794 64.3431 93.7906 64.1893C94.1018 64.0355 94.4403 63.9446 94.7867 63.9219C95.1332 63.8993 95.4806 63.9452 95.8092 64.0572C96.1379 64.1691 96.4411 64.3448 96.7016 64.5743L96.6952 64.5921ZM136.971 80.813C138.134 80.7437 139.276 81.1384 140.148 81.9104C141.02 82.6824 141.55 83.7687 141.622 84.931L142.129 93.1836C142.164 93.7595 142.086 94.3366 141.898 94.882C141.71 95.4275 141.416 95.9305 141.034 96.3625C140.651 96.7944 140.188 97.1467 139.669 97.3993C139.15 97.652 138.587 97.7999 138.011 97.8347L137.912 97.8407L139.427 122.726C139.752 128.077 140.949 133.338 142.971 138.303L142.986 138.349C143.501 139.608 144.076 140.868 144.695 142.083L149.019 150.607C151.935 156.344 154.403 162.297 156.402 168.414L156.425 168.467L156.592 168.99L156.903 169.97L157.268 171.148L157.485 171.884C159.738 179.461 161.267 187.234 162.051 195.1L162.062 195.194C162.123 195.793 162.175 196.392 162.224 196.995L162.259 197.368C162.304 197.919 162.344 198.471 162.379 199.025L162.414 199.553C162.433 200.063 162.48 200.593 162.506 201.114L162.543 201.757C162.573 202.253 162.603 202.749 162.618 203.232L162.627 203.996C162.639 204.443 162.657 204.896 162.664 205.348L162.661 205.383C162.709 208.074 162.671 210.767 162.55 213.464L162.205 220.24C162.052 223.486 160.704 226.561 158.42 228.874C156.136 231.186 153.078 232.572 149.833 232.764L118.568 234.665C115.325 234.865 112.121 233.858 109.575 231.839C107.029 229.819 105.319 226.929 104.776 223.725L103.648 217.044C103.187 214.383 102.824 211.713 102.558 209.036L102.551 209.007L102.466 208.096C102.427 207.695 102.385 207.296 102.354 206.897C102.302 206.425 102.277 205.97 102.242 205.507L102.185 204.775L102.094 203.287C102.085 203.095 102.071 202.9 102.064 202.706C102.031 202.165 102.008 201.623 101.985 201.082L101.97 200.674C101.951 200.078 101.932 199.484 101.914 198.892L101.912 198.768C101.735 190.86 102.309 182.953 103.624 175.153L103.749 174.418C103.819 174.011 103.891 173.605 103.964 173.2L104.152 172.202C104.186 172.021 104.217 171.837 104.254 171.658L104.27 171.597C105.515 165.286 107.243 159.08 109.438 153.033L112.699 144.045C113.382 142.172 113.95 140.258 114.401 138.316L114.408 138.276C115.479 133.667 115.88 128.927 115.598 124.204L114.085 99.3163L113.991 99.322C113.415 99.3572 112.838 99.2786 112.292 99.0907C111.747 98.9028 111.244 98.6092 110.812 98.2268C110.38 97.8443 110.028 97.3805 109.775 96.8619C109.522 96.3432 109.375 95.7798 109.34 95.204L108.837 86.9362C108.802 86.3603 108.881 85.7832 109.069 85.2377C109.256 84.6923 109.55 84.1893 109.933 83.7573C110.315 83.3254 110.779 82.973 111.297 82.7204C111.816 82.4678 112.379 82.3199 112.955 82.2851L136.971 80.813ZM108.818 216.142L109.946 222.823C110.273 224.746 111.298 226.48 112.826 227.691C114.354 228.903 116.276 229.506 118.223 229.386L149.499 227.472C151.446 227.356 153.281 226.524 154.65 225.137C156.02 223.749 156.829 221.904 156.92 219.956L157.233 213.19C157.313 211.52 157.357 209.849 157.365 208.178L108.045 211.176C108.281 212.837 108.538 214.492 108.818 216.142ZM108.91 175.245L108.813 175.784C108.731 176.275 108.649 176.765 108.572 177.261L108.52 177.6C108.436 178.151 108.355 178.706 108.277 179.263C108.273 179.311 108.263 179.359 108.256 179.409C107.194 187.08 106.872 194.835 107.296 202.567L107.3 202.642C107.332 203.247 107.371 203.85 107.413 204.455L107.435 204.743L107.53 205.935L157.311 202.914L157.263 201.717L157.251 201.434C157.217 200.825 157.181 200.217 157.143 199.61L157.139 199.545C156.624 191.822 155.366 184.166 153.381 176.684L153.335 176.512C153.193 175.978 153.044 175.447 152.884 174.901L152.78 174.541C152.647 174.071 152.508 173.601 152.37 173.132L152.205 172.586L152.029 172.017L109.004 174.629L108.91 175.245ZM117.637 145.835L114.376 154.822C112.652 159.554 111.229 164.39 110.115 169.302L150.313 166.859C148.611 162.116 146.612 157.485 144.327 152.994L140.255 144.998L134.167 155.427C133.761 156.122 133.207 156.718 132.543 157.173C131.88 157.628 131.124 157.931 130.33 158.059C129.536 158.188 128.723 158.139 127.95 157.916C127.177 157.694 126.462 157.303 125.858 156.772C125.493 156.448 125.172 156.077 124.905 155.669C123.032 152.814 120.514 148.987 117.909 145.056C117.82 145.311 117.733 145.572 117.637 145.835ZM120.832 123.856C121.123 128.702 120.765 133.565 119.768 138.316C123.218 143.498 126.81 148.988 129.316 152.771C129.331 152.796 129.353 152.817 129.379 152.831C129.406 152.844 129.435 152.849 129.465 152.846C129.495 152.849 129.526 152.842 129.552 152.827C129.578 152.811 129.599 152.788 129.612 152.76L137.606 139.07C135.656 133.933 134.494 128.53 134.161 123.046L132.649 98.1631L119.319 98.9733L120.832 123.856ZM114.525 93.9723L116.376 93.8598L134.966 92.7299L136.807 92.618L136.412 86.1169L114.127 87.4738L114.525 93.9723ZM107.868 40.1834C108.259 40.5291 108.538 40.9828 108.671 41.4872C108.803 41.9915 108.783 42.5239 108.613 43.0169C108.443 43.5099 108.131 43.9415 107.716 44.257C107.301 44.5725 106.801 44.7578 106.281 44.7894C105.76 44.821 105.242 44.6976 104.791 44.4347C104.341 44.1718 103.979 43.7813 103.75 43.3125C103.522 42.8437 103.438 42.3177 103.508 41.801C103.579 41.2843 103.801 40.8001 104.146 40.4096C104.61 39.8861 105.263 39.5681 105.961 39.5257C106.659 39.4832 107.345 39.7198 107.868 40.1834ZM132.104 199.224C129.36 199.388 126.662 198.456 124.603 196.633C122.544 194.81 121.293 192.245 121.123 189.501C120.999 187.453 121.484 185.415 122.518 183.644C123.552 181.872 125.088 180.447 126.932 179.548C128.776 178.65 130.845 178.318 132.878 178.596C134.91 178.873 136.814 179.747 138.35 181.107C139.886 182.467 140.984 184.251 141.505 186.235C142.027 188.219 141.948 190.313 141.28 192.252C140.611 194.191 139.383 195.888 137.75 197.129C136.116 198.37 134.152 199.099 132.104 199.224ZM136.562 188.562C136.49 187.386 136.012 186.271 135.21 185.408C134.408 184.544 133.332 183.986 132.164 183.827C130.996 183.668 129.81 183.919 128.806 184.537C127.803 185.155 127.045 186.102 126.661 187.216C126.277 188.33 126.292 189.543 126.702 190.648C127.112 191.752 127.893 192.681 128.911 193.275C129.928 193.868 131.121 194.091 132.284 193.904C133.448 193.718 134.511 193.133 135.292 192.251C135.735 191.751 136.075 191.169 136.293 190.538C136.512 189.907 136.603 189.239 136.563 188.572L136.562 188.562ZM95.8793 46.0874C96.2698 46.4331 96.549 46.8868 96.6815 47.3912C96.8141 47.8955 96.7942 48.4279 96.6242 48.9209C96.4542 49.4139 96.1419 49.8455 95.7266 50.161C95.3114 50.4765 94.8119 50.6617 94.2914 50.6934C93.7709 50.725 93.2527 50.6016 92.8023 50.3387C92.3519 50.0758 91.9896 49.6853 91.7612 49.2165C91.5327 48.7477 91.4484 48.2217 91.519 47.705C91.5895 47.1883 91.8116 46.7041 92.1573 46.3136C92.6209 45.7901 93.2735 45.4721 93.9715 45.4297C94.6695 45.3872 95.3558 45.6238 95.8793 46.0874Z" fill="#4365AF"/>
</g>
<defs>
<clipPath id="clip0_586_4008">
<rect width="180" height="180" fill="white" transform="matrix(-0.748703 -0.662905 -0.662905 0.748703 254.806 120.039)"/>
</clipPath>
</defs>
</svg>
