<svg width="204" height="204" viewBox="0 0 204 204" fill="none" xmlns="http://www.w3.org/2000/svg">
<g clip-path="url(#clip0_586_3998)">
<path d="M154.25 30.145C153.97 30.1441 153.691 30.1809 153.421 30.2542L111.331 42.1689C110.536 42.3947 109.862 42.9265 109.458 43.6484C109.054 44.3702 108.952 45.223 109.176 46.0194L121.938 91.1245C125.794 104.751 131.303 116.476 137.335 124.671C140.35 128.768 143.48 131.998 146.804 134.12C150.128 136.241 153.867 137.29 157.441 136.278L163.459 134.571C167.033 133.559 169.667 130.722 171.387 127.173C173.107 123.624 174.079 119.225 174.501 114.155C175.344 104.015 173.89 91.1291 170.034 77.5025L157.272 32.4097C157.084 31.7542 156.687 31.1778 156.142 30.7689C155.596 30.36 154.932 30.1411 154.25 30.145ZM152.114 37.1199L164.028 79.2098C167.713 92.2312 169.037 104.538 168.281 113.632C167.902 118.179 166.984 121.916 165.759 124.445C164.533 126.973 163.174 128.15 161.751 128.553L155.733 130.26C154.311 130.663 152.541 130.361 150.172 128.849C147.804 127.337 145.065 124.638 142.36 120.963C136.951 113.614 131.629 102.439 127.944 89.4173L116.03 47.3274L152.114 37.1199Z" fill="#4365AF"/>
<path d="M162.599 131.568L156.593 133.263L173.605 193.395L179.611 191.688L162.599 131.568ZM166.183 75.347L124.093 87.2617L125.788 93.2799L167.878 81.3652L166.183 75.347Z" fill="#4365AF"/>
<path d="M194.582 184.314C194.301 184.321 194.023 184.366 193.754 184.447L157.767 194.629C157.353 194.722 156.963 194.899 156.619 195.148C156.276 195.398 155.987 195.715 155.77 196.079C155.553 196.444 155.413 196.849 155.357 197.269C155.302 197.69 155.333 198.117 155.448 198.526C155.563 198.934 155.761 199.315 156.028 199.644C156.295 199.974 156.626 200.246 157.002 200.443C157.377 200.64 157.789 200.759 158.212 200.792C158.635 200.825 159.06 200.772 159.462 200.635L195.461 190.453C196.197 190.253 196.834 189.791 197.253 189.154C197.672 188.517 197.843 187.749 197.735 186.995C197.627 186.24 197.246 185.551 196.666 185.057C196.085 184.563 195.344 184.299 194.582 184.314ZM57.1105 31.5016C56.446 31.5373 55.8104 31.7842 55.296 32.2063C54.7816 32.6284 54.4152 33.2037 54.2505 33.8484L42.7525 79.2801C39.2786 93.009 38.1848 105.931 39.3113 116.043C39.8743 121.099 40.9813 125.47 42.7995 128.969C44.6178 132.469 47.3303 135.231 50.9311 136.142L56.9822 137.681C60.583 138.592 64.2909 137.44 67.5547 135.227C70.8185 133.013 73.8685 129.696 76.7687 125.516C82.5692 117.157 87.7359 105.283 91.2098 91.5537L102.708 46.1098C102.909 45.3075 102.784 44.4581 102.36 43.7479C101.936 43.0377 101.247 42.5245 100.446 42.321L58.0393 31.5863C57.7357 31.5118 57.4226 31.4832 57.1105 31.5016ZM59.5383 38.4128L95.8934 47.6086L85.1587 90.0148C81.839 103.134 76.8313 114.454 71.6291 121.951C69.028 125.7 66.3658 128.475 64.0404 130.052C61.7152 131.629 59.9541 131.98 58.5209 131.618L52.4576 130.079C51.0243 129.717 49.6327 128.578 48.3373 126.084C47.0418 123.591 46.0194 119.881 45.5143 115.346C44.504 106.277 45.4959 93.938 48.8158 80.8188L59.5383 38.4128Z" fill="#4365AF"/>
<path d="M51.695 133.117L36.3683 193.688L42.4194 195.227L57.7459 134.643L51.695 133.117ZM46.5541 77.0178L45.0154 83.0811L87.4216 93.8158L88.9481 87.7526L46.5541 77.0178Z" fill="#4365AF"/>
<path d="M21.099 186.737C20.346 186.769 19.63 187.072 19.0828 187.59C18.5356 188.108 18.194 188.807 18.1212 189.557C18.0485 190.307 18.2493 191.058 18.6867 191.672C19.1241 192.286 19.7687 192.721 20.5015 192.897L56.7586 202.07C57.1639 202.195 57.5906 202.237 58.0125 202.192C58.4344 202.147 58.8426 202.017 59.2125 201.809C59.5824 201.601 59.9059 201.32 60.1637 200.983C60.4215 200.646 60.6082 200.26 60.712 199.849C60.8157 199.438 60.8347 199.009 60.7676 198.59C60.7005 198.171 60.5487 197.771 60.3217 197.412C60.0946 197.054 59.7971 196.746 59.447 196.506C59.0969 196.266 58.7015 196.101 58.2852 196.019L22.0281 186.846C21.7256 186.763 21.4124 186.726 21.099 186.737ZM89.6994 1.75275C84.5604 1.82452 80.3864 6.11668 80.4581 11.2558C80.5299 16.3949 84.8221 20.5689 89.9612 20.4971C95.1004 20.4253 99.2743 16.1331 99.2025 10.994C99.1307 5.85491 94.8386 1.68098 89.6994 1.75275ZM89.7867 8.00087C91.5491 7.97626 92.9298 9.3189 92.9544 11.0813C92.979 12.8437 91.6364 14.2244 89.874 14.249C88.1116 14.2736 86.7309 12.9309 86.7063 11.1686C86.6817 9.40616 88.0244 8.02549 89.7867 8.00087ZM121.071 10.6886C115.932 10.7604 111.758 15.0526 111.83 20.1917C111.901 25.3308 116.194 29.5048 121.333 29.433C126.472 29.3612 130.646 25.069 130.574 19.9299C130.502 14.7908 126.21 10.6169 121.071 10.6886ZM121.158 16.9368C122.921 16.9122 124.301 18.2548 124.326 20.0172C124.35 21.7795 123.008 23.1603 121.245 23.1849C119.483 23.2095 118.102 21.8668 118.078 20.1045C118.053 18.342 119.396 16.9614 121.158 16.9368ZM17.7972 2.7569C17.3871 2.76903 16.9834 2.86202 16.6091 3.0302C16.2348 3.19837 15.8973 3.43851 15.6158 3.73713C15.3344 4.03575 15.1146 4.38671 14.9688 4.7703C14.8231 5.1539 14.7542 5.56256 14.7663 5.97273L14.8087 9.01136C14.8087 9.42542 14.8909 9.83549 15.0506 10.2175C15.2104 10.5995 15.4444 10.9458 15.7392 11.2366C16.034 11.5274 16.3837 11.7566 16.7678 11.9111C17.152 12.0655 17.563 12.1422 17.9771 12.1364C18.3911 12.1306 18.7998 12.0425 19.1795 11.8774C19.5592 11.7123 19.9023 11.4733 20.1889 11.1745C20.4754 10.8756 20.6997 10.5228 20.8488 10.1365C20.9978 9.75021 21.0685 9.338 21.0569 8.9241L21.0144 5.88547C21.0151 5.4669 20.9319 5.0525 20.7693 4.66679C20.6068 4.28108 20.3681 3.93205 20.068 3.64024C19.7679 3.34843 19.4124 3.11961 19.0223 2.96789C18.6322 2.81617 18.2156 2.74451 17.7972 2.7569ZM18.0154 18.3772C17.6052 18.3893 17.2015 18.4823 16.8272 18.6505C16.4529 18.8187 16.1154 19.0588 15.834 19.3574C15.5525 19.656 15.3327 20.007 15.187 20.3906C15.0412 20.7742 14.9723 21.1829 14.9845 21.593L15.0269 24.6317C15.0268 25.0457 15.109 25.4558 15.2688 25.8378C15.4285 26.2198 15.6626 26.5661 15.9574 26.8569C16.2522 27.1477 16.6018 27.3769 16.986 27.5314C17.3701 27.6858 17.7812 27.7625 18.1952 27.7567C18.6092 27.7509 19.018 27.6628 19.3977 27.4977C19.7774 27.3326 20.1205 27.0936 20.407 26.7948C20.6936 26.4959 20.9179 26.1431 21.0669 25.7568C21.2159 25.3705 21.2866 24.9583 21.275 24.5444L21.2326 21.5058C21.2333 21.0872 21.15 20.6728 20.9875 20.2871C20.8249 19.9014 20.5862 19.5524 20.2862 19.2605C19.9861 18.9687 19.6305 18.7399 19.2404 18.5882C18.8503 18.4365 18.4338 18.3648 18.0154 18.3772ZM24.2739 12.0405C23.8598 12.0404 23.4497 12.1226 23.0677 12.2824C22.6857 12.4421 22.3394 12.6762 22.0486 12.971C21.7579 13.2657 21.5286 13.6154 21.3741 13.9996C21.2197 14.3837 21.143 14.7948 21.1488 15.2088C21.1546 15.6228 21.2427 16.0315 21.4078 16.4112C21.573 16.7909 21.8119 17.134 22.1108 17.4206C22.4097 17.7072 22.7624 17.9315 23.1487 18.0805C23.535 18.2295 23.9472 18.3002 24.3611 18.2886L27.3998 18.2461C27.8138 18.2462 28.2239 18.164 28.6059 18.0043C28.9879 17.8445 29.3342 17.6105 29.625 17.3157C29.9158 17.0209 30.145 16.6712 30.2995 16.2871C30.454 15.9029 30.5306 15.4919 30.5248 15.0778C30.519 14.6638 30.4309 14.2551 30.2658 13.8754C30.1007 13.4957 29.8617 13.1526 29.5629 12.866C29.264 12.5795 28.9112 12.3551 28.5249 12.2061C28.1386 12.0571 27.7264 11.9864 27.3125 11.998L24.2739 12.0405ZM8.65358 12.2586C8.23952 12.2585 7.82945 12.3408 7.44744 12.5005C7.06544 12.6602 6.7191 12.8943 6.42834 13.1891C6.13759 13.4839 5.9083 13.8335 5.75385 14.2177C5.59939 14.6019 5.52274 15.0129 5.52853 15.4269C5.53431 15.8409 5.6224 16.2497 5.78753 16.6294C5.95265 17.0091 6.19161 17.3522 6.49048 17.6387C6.78936 17.9253 7.1421 18.1496 7.52841 18.2986C7.91473 18.4476 8.32694 18.5184 8.74083 18.5067L11.7795 18.4643C12.1935 18.4644 12.6036 18.3821 12.9856 18.2224C13.3676 18.0627 13.7139 17.8286 14.0047 17.5338C14.2955 17.239 14.5247 16.8894 14.6792 16.5052C14.8337 16.121 14.9103 15.71 14.9045 15.296C14.8987 14.882 14.8106 14.4732 14.6455 14.0935C14.4804 13.7138 14.2414 13.3707 13.9426 13.0842C13.6437 12.7976 13.2909 12.5733 12.9046 12.4243C12.5183 12.2753 12.1061 12.2045 11.6922 12.2162L8.65358 12.2586Z" fill="#4365AF"/>
<path d="M12.0808 37.2534C12.0924 38.0819 11.7745 38.8813 11.1968 39.4753C10.6191 40.0694 9.82893 40.4095 9.00038 40.421C8.17183 40.4326 7.37247 40.1147 6.77841 39.537C6.18436 38.9593 5.84426 38.1692 5.83269 37.3406C5.82112 36.5121 6.13902 35.7127 6.71671 35.1186C7.2944 34.5246 8.08457 34.1845 8.91312 34.1729C9.74168 34.1614 10.541 34.4792 11.1351 35.0569C11.7291 35.6346 12.0692 36.4248 12.0808 37.2534ZM21.6711 55.8247C21.6827 56.6533 21.3648 57.4526 20.7871 58.0467C20.2094 58.6407 19.4192 58.9808 18.5906 58.9924C17.7621 59.004 16.9627 58.6861 16.3687 58.1084C15.7746 57.5307 15.4345 56.7405 15.423 55.912C15.4114 55.0834 15.7293 54.2841 16.307 53.69C16.8847 53.096 17.6748 52.7559 18.5034 52.7443C19.3319 52.7327 20.1313 53.0506 20.7254 53.6283C21.3194 54.206 21.6595 54.9962 21.6711 55.8247Z" fill="#4365AF"/>
<path d="M109.802 132.842C109.392 132.855 108.988 132.947 108.614 133.115C108.24 133.284 107.902 133.524 107.621 133.823C107.339 134.121 107.119 134.472 106.973 134.856C106.828 135.239 106.759 135.648 106.771 136.058L106.814 139.097C106.814 139.511 106.896 139.921 107.056 140.303C107.215 140.685 107.449 141.031 107.744 141.322C108.039 141.613 108.389 141.842 108.773 141.997C109.157 142.151 109.568 142.228 109.982 142.222C110.396 142.216 110.805 142.128 111.184 141.963C111.564 141.798 111.907 141.559 112.194 141.26C112.48 140.961 112.705 140.608 112.854 140.222C113.003 139.836 113.073 139.424 113.062 139.01L113.019 135.971C113.02 135.552 112.937 135.138 112.774 134.752C112.612 134.367 112.373 134.018 112.073 133.726C111.773 133.434 111.417 133.205 111.027 133.053C110.637 132.902 110.221 132.83 109.802 132.842ZM110.02 148.463C109.61 148.475 109.206 148.567 108.832 148.736C108.458 148.904 108.12 149.144 107.839 149.443C107.557 149.742 107.337 150.093 107.191 150.476C107.046 150.86 106.977 151.268 106.989 151.679L107.032 154.717C107.032 155.131 107.114 155.541 107.274 155.923C107.433 156.305 107.667 156.652 107.962 156.942C108.257 157.233 108.607 157.462 108.991 157.617C109.375 157.771 109.786 157.848 110.2 157.842C110.614 157.836 111.023 157.748 111.403 157.583C111.782 157.418 112.125 157.179 112.412 156.88C112.698 156.581 112.923 156.229 113.072 155.842C113.221 155.456 113.292 155.044 113.28 154.63L113.237 151.591C113.238 151.173 113.155 150.758 112.992 150.373C112.83 149.987 112.591 149.638 112.291 149.346C111.991 149.054 111.635 148.825 111.245 148.674C110.855 148.522 110.439 148.45 110.02 148.463ZM116.267 142.126C115.852 142.126 115.442 142.208 115.06 142.368C114.678 142.528 114.332 142.762 114.041 143.057C113.751 143.351 113.521 143.701 113.367 144.085C113.212 144.469 113.136 144.88 113.142 145.294C113.147 145.708 113.235 146.117 113.401 146.497C113.566 146.877 113.805 147.22 114.103 147.506C114.402 147.793 114.755 148.017 115.141 148.166C115.528 148.315 115.94 148.386 116.354 148.374L119.392 148.332C119.807 148.332 120.217 148.25 120.599 148.09C120.981 147.93 121.327 147.696 121.618 147.401C121.908 147.107 122.138 146.757 122.292 146.373C122.447 145.989 122.523 145.578 122.518 145.164C122.512 144.75 122.424 144.341 122.258 143.961C122.093 143.581 121.854 143.238 121.556 142.952C121.257 142.665 120.904 142.441 120.518 142.292C120.131 142.143 119.719 142.072 119.305 142.084L116.267 142.126ZM100.646 142.344C100.232 142.344 99.8221 142.426 99.4401 142.586C99.0581 142.746 98.7118 142.98 98.421 143.275C98.1303 143.57 97.901 143.919 97.7465 144.303C97.5921 144.688 97.5154 145.099 97.5212 145.513C97.527 145.927 97.6151 146.335 97.7802 146.715C97.9453 147.095 98.1843 147.438 98.4832 147.724C98.782 148.011 99.1348 148.235 99.5211 148.384C99.9074 148.533 100.32 148.604 100.734 148.592L103.772 148.55C104.186 148.55 104.596 148.468 104.978 148.308C105.36 148.148 105.707 147.914 105.997 147.62C106.288 147.325 106.517 146.975 106.672 146.591C106.826 146.207 106.903 145.796 106.897 145.382C106.891 144.968 106.803 144.559 106.638 144.179C106.473 143.8 106.234 143.456 105.935 143.17C105.636 142.883 105.284 142.659 104.897 142.51C104.511 142.361 104.099 142.29 103.685 142.302L100.646 142.344Z" fill="#4365AF"/>
<path d="M125.946 167.035C125.958 167.864 125.64 168.663 125.062 169.257C124.485 169.851 123.694 170.191 122.866 170.203C122.037 170.214 121.238 169.896 120.644 169.319C120.05 168.741 119.71 167.951 119.698 167.122C119.687 166.294 120.005 165.494 120.582 164.9C121.16 164.306 121.95 163.966 122.779 163.955C123.607 163.943 124.407 164.261 125.001 164.839C125.595 165.416 125.935 166.206 125.946 167.035ZM183.209 19.3335C183.221 20.162 182.903 20.9614 182.325 21.5554C181.748 22.1495 180.957 22.4896 180.129 22.5012C179.3 22.5127 178.501 22.1948 177.907 21.6171C177.313 21.0395 176.973 20.2493 176.961 19.4207C176.95 18.5922 177.267 17.7928 177.845 17.1988C178.423 16.6047 179.213 16.2646 180.042 16.253C180.87 16.2415 181.669 16.5594 182.264 17.1371C182.858 17.7148 183.198 18.5049 183.209 19.3335ZM190.068 62.9827C190.08 63.8112 189.762 64.6106 189.184 65.2046C188.606 65.7987 187.816 66.1388 186.988 66.1504C186.159 66.1619 185.36 65.844 184.766 65.2664C184.172 64.6887 183.832 63.8985 183.82 63.0699C183.808 62.2414 184.126 61.442 184.704 60.848C185.282 60.2539 186.072 59.9138 186.9 59.9023C187.729 59.8907 188.528 60.2086 189.122 60.7863C189.716 61.364 190.057 62.1541 190.068 62.9827ZM103.38 120.437C103.391 121.266 103.073 122.065 102.496 122.659C101.918 123.253 101.128 123.594 100.299 123.605C99.4708 123.617 98.6714 123.299 98.0774 122.721C97.4833 122.143 97.1432 121.353 97.1316 120.525C97.1201 119.696 97.438 118.897 98.0157 118.303C98.5934 117.709 99.3835 117.369 100.212 117.357C101.041 117.345 101.84 117.663 102.434 118.241C103.028 118.819 103.368 119.609 103.38 120.437Z" fill="#4365AF"/>
</g>
<defs>
<clipPath id="clip0_586_3998">
<rect width="200" height="200" fill="white" transform="translate(0.228027 3.02087) rotate(-0.800113)"/>
</clipPath>
</defs>
</svg>
