<svg width="512" height="512" viewBox="0 0 512 512" fill="none" xmlns="http://www.w3.org/2000/svg">
<path opacity="0.15" d="M256 459.733C335.529 459.733 400 452.57 400 443.733C400 434.897 335.529 427.733 256 427.733C176.471 427.733 112 434.897 112 443.733C112 452.57 176.471 459.733 256 459.733Z" fill="#45413C"/>
<path d="M190.933 229.333C190.933 229.333 106.667 235.733 70.4 346.667C66.1333 359.467 78.9333 370.133 88.5333 362.667C102.4 352 116.267 346.667 130.133 346.667C133.333 374.4 141.867 400 153.6 423.467C158.933 434.133 172.8 432 176 420.267C192 338.133 256 269.867 256 269.867L190.933 229.333Z" fill="#4365AF"/>
<path d="M190.933 229.333C190.933 229.333 173.867 230.4 151.467 242.133C166.4 270.933 196.267 292.267 232.533 298.667C246.4 280.533 256 268.8 256 268.8L190.933 229.333Z" fill="#282C7D"/>
<path d="M190.933 229.333C190.933 229.333 106.667 235.733 70.4 346.667C66.1333 359.467 78.9333 370.133 88.5333 362.667C102.4 352 116.267 346.667 130.133 346.667C133.333 374.4 141.867 400 153.6 423.467C158.933 434.133 172.8 432 176 420.267C192 338.133 256 269.867 256 269.867L190.933 229.333Z" stroke="#45413C" stroke-miterlimit="10" stroke-linecap="round" stroke-linejoin="round"/>
<path d="M322.133 229.333C322.133 229.333 406.4 235.733 442.667 346.667C446.933 359.467 434.133 370.133 424.533 362.667C410.667 352 396.8 346.667 382.933 346.667C379.733 374.4 371.2 400 359.467 423.467C354.133 434.133 340.267 432 337.067 420.267C321.067 338.133 256 269.867 256 269.867L322.133 229.333Z" fill="#4365AF"/>
<path d="M322.133 229.333C322.133 229.333 339.2 230.4 361.6 242.133C346.667 270.933 316.8 292.267 280.533 298.667C266.667 281.6 256 269.867 256 269.867L322.133 229.333Z" fill="#282C7D"/>
<path d="M322.133 229.333C322.133 229.333 406.4 235.733 442.667 346.667C446.933 359.467 434.133 370.133 424.533 362.667C410.667 352 396.8 346.667 382.933 346.667C379.733 374.4 371.2 400 359.467 423.467C354.133 434.133 340.267 432 337.067 420.267C321.067 338.133 256 269.867 256 269.867L322.133 229.333Z" stroke="#45413C" stroke-miterlimit="10" stroke-linecap="round" stroke-linejoin="round"/>
<path d="M498.134 179.2C462.934 249.6 291.2 229.333 291.2 229.333L270.934 183.466L477.867 77.8665L498.134 179.2Z" fill="#282C7D" stroke="#45413C" stroke-miterlimit="10" stroke-linecap="round" stroke-linejoin="round"/>
<path d="M272 184.533C272 184.533 365.867 27.7332 457.6 56.5332C468.267 59.7332 476.8 68.2666 478.933 78.9332L499.2 180.267C423.467 124.8 292.267 230.4 292.267 230.4L272 184.533Z" fill="#4365AF"/>
<path d="M467.2 101.333C389.333 76.7999 309.333 186.667 288 220.8L272 184.533C272 184.533 365.867 27.7332 457.6 56.5332C468.267 59.7332 476.8 68.2666 478.933 78.9332L486.4 118.4C482.133 109.867 474.667 103.467 467.2 101.333Z" fill="#7592CF"/>
<path d="M272 184.533C272 184.533 365.867 27.7332 457.6 56.5332C468.267 59.7332 476.8 68.2666 478.933 78.9332L499.2 180.267C423.467 124.8 292.267 230.4 292.267 230.4L272 184.533Z" stroke="#45413C" stroke-miterlimit="10" stroke-linecap="round" stroke-linejoin="round"/>
<path d="M13.8667 179.2C49.0667 249.6 220.8 229.333 220.8 229.333L241.067 183.467L34.1334 78.9333L13.8667 179.2Z" fill="#282C7D" stroke="#45413C" stroke-miterlimit="10" stroke-linecap="round" stroke-linejoin="round"/>
<path d="M241.067 184.533C241.067 184.533 147.2 27.7332 55.4667 56.5332C44.8 59.7332 36.2667 68.2666 34.1334 78.9332L13.8667 180.267C89.6 124.8 220.8 230.4 220.8 230.4L241.067 184.533Z" fill="#4365AF"/>
<path d="M45.8665 101.333C123.733 76.7999 202.667 187.733 225.067 220.8L241.067 184.533C241.067 184.533 147.2 27.7332 55.4665 56.5332C44.7998 59.7332 36.2665 68.2666 34.1332 78.9332L26.6665 117.333C30.9332 109.867 38.3998 103.467 45.8665 101.333Z" fill="#7592CF"/>
<path d="M241.067 184.533C241.067 184.533 147.2 27.7332 55.4667 56.5332C44.8 59.7332 36.2667 68.2666 34.1334 78.9332L13.8667 180.267C89.6 124.8 220.8 230.4 220.8 230.4L241.067 184.533Z" stroke="#45413C" stroke-miterlimit="10" stroke-linecap="round" stroke-linejoin="round"/>
<path d="M256 275.2C303.128 275.2 341.333 241.293 341.333 199.466C341.333 157.64 303.128 123.733 256 123.733C208.872 123.733 170.667 157.64 170.667 199.466C170.667 241.293 208.872 275.2 256 275.2Z" fill="#4365AF"/>
<path d="M256 158.933C289.066 158.933 317.866 167.466 339.2 182.4C330.666 149.333 296.533 123.733 256 123.733C215.466 123.733 181.333 148.266 172.8 182.4C194.133 168.533 224 158.933 256 158.933Z" fill="#7592CF"/>
<path d="M256 275.2C303.128 275.2 341.333 241.293 341.333 199.466C341.333 157.64 303.128 123.733 256 123.733C208.872 123.733 170.667 157.64 170.667 199.466C170.667 241.293 208.872 275.2 256 275.2Z" stroke="#45413C" stroke-miterlimit="10" stroke-linecap="round" stroke-linejoin="round"/>
</svg>
